<svg viewBox="0 0 64 64" fill="none" xmlns="http://www.w3.org/2000/svg">
<path d="M32.0214 7L51.9573 57.8601L31.9786 37.8815L12 57.8601L32.0214 7Z" fill="white" stroke="white"/>
<path d="M32.0214 7L52 57.6011L32.0214 37.6224L12.0427 57.6011L32.0214 7Z" stroke="black" stroke-linecap="square"/>
<path d="M13.7223 53.6398L18.3656 50.9592Z" fill="black"/>
<path d="M13.7223 53.6398L18.3656 50.9592" stroke="black" stroke-width="0.25"/>
<path d="M14.1377 52.1793L21.3004 48.0458Z" fill="black"/>
<path d="M14.1377 52.1793L21.3004 48.0458" stroke="black" stroke-width="0.25"/>
<path d="M13.0334 55.2588L15.7891 53.668Z" fill="black"/>
<path d="M13.0334 55.2588L15.7891 53.668" stroke="black" stroke-width="0.25"/>
<path d="M14.7157 50.6292L24.2614 45.1179Z" fill="black"/>
<path d="M14.7157 50.6292L24.2614 45.1179" stroke="black" stroke-width="0.25"/>
<path d="M19.2336 39.4756L32.1068 32.027Z" fill="black"/>
<path d="M19.2336 39.4756L32.1068 32.027" stroke="black" stroke-width="0.25"/>
<path d="M21.02 34.7841L32.1047 28.3834Z" fill="black"/>
<path d="M21.02 34.7841L32.1047 28.3834" stroke="black" stroke-width="0.25"/>
<path d="M21.5367 33.2616L32.1068 27.1591Z" fill="black"/>
<path d="M21.5367 33.2616L32.1068 27.1591" stroke="black" stroke-width="0.25"/>
<path d="M22.5935 31.4291L32.1068 25.937Z" fill="black"/>
<path d="M22.5935 31.4291L32.1068 25.937" stroke="black" stroke-width="0.25"/>
<path d="M23.0303 29.9617L32.1061 24.7217Z" fill="black"/>
<path d="M23.0303 29.9617L32.1061 24.7217" stroke="black" stroke-width="0.25"/>
<path d="M23.651 28.3772L32.1068 23.4948Z" fill="black"/>
<path d="M23.651 28.3772L32.1068 23.4948" stroke="black" stroke-width="0.25"/>
<path d="M24.0561 26.9235L31.9284 22.3787Z" fill="black"/>
<path d="M24.0561 26.9235L31.9284 22.3787" stroke="black" stroke-width="0.25"/>
<path d="M24.745 25.3507L32.2005 21.003Z" fill="black"/>
<path d="M24.745 25.3507L32.2005 21.003" stroke="black" stroke-width="0.25"/>
<path d="M25.3141 23.7614L32.1068 19.8394Z" fill="black"/>
<path d="M25.3141 23.7614L32.1068 19.8394" stroke="black" stroke-width="0.25"/>
<path d="M25.7646 22.2802L32.1068 18.6186Z" fill="black"/>
<path d="M25.7646 22.2802L32.1068 18.6186" stroke="black" stroke-width="0.25"/>
<path d="M26.8118 20.4525L32.1068 17.3958Z" fill="black"/>
<path d="M26.8118 20.4525L32.1068 17.3958" stroke="black" stroke-width="0.25"/>
<path d="M27.3243 18.939L32.0971 16.1833Z" fill="black"/>
<path d="M27.3243 18.939L32.0971 16.1833" stroke="black" stroke-width="0.25"/>
<path d="M27.8789 17.3958L32.1068 14.9549Z" fill="black"/>
<path d="M27.8789 17.3958L32.1068 14.9549" stroke="black" stroke-width="0.25"/>
<path d="M28.1896 15.9973L32.1068 13.7356Z" fill="black"/>
<path d="M28.1896 15.9973L32.1068 13.7356" stroke="black" stroke-width="0.25"/>
<path d="M29.3353 14.1138L32.1047 12.5134Z" fill="black"/>
<path d="M29.3353 14.1138L32.1047 12.5134" stroke="black" stroke-width="0.25"/>
<path d="M29.9925 12.5113L32.1068 11.2906Z" fill="black"/>
<path d="M29.9925 12.5113L32.1068 11.2906" stroke="black" stroke-width="0.25"/>
<path d="M30.2563 11.1404L32.1068 10.0719Z" fill="black"/>
<path d="M30.2563 11.1404L32.1068 10.0719" stroke="black" stroke-width="0.25"/>
<path d="M31.0486 9.4622L32.1054 8.85181Z" fill="black"/>
<path d="M31.0486 9.4622L32.1054 8.85181" stroke="black" stroke-width="0.25"/>
<path d="M19.9226 37.856L32.1068 30.8214Z" fill="black"/>
<path d="M19.9226 37.856L32.1068 30.8214" stroke="black" stroke-width="0.25"/>
<path d="M17.3088 44.2498L32.1068 35.7059Z" fill="black"/>
<path d="M17.3088 44.2498L32.1068 35.7059" stroke="black" stroke-width="0.25"/>
<path d="M16.726 45.8068L32.1068 36.9266Z" fill="black"/>
<path d="M16.726 45.8068L32.1068 36.9266" stroke="black" stroke-width="0.25"/>
<path d="M16.2513 47.3017L29.9925 39.3682Z" fill="black"/>
<path d="M16.2513 47.3017L29.9925 39.3682" stroke="black" stroke-width="0.25"/>
<path d="M15.1945 49.1274L26.9199 42.3574Z" fill="black"/>
<path d="M15.1945 49.1274L26.9199 42.3574" stroke="black" stroke-width="0.25"/>
<path d="M17.8558 42.7108L32.1068 34.483Z" fill="black"/>
<path d="M17.8558 42.7108L32.1068 34.483" stroke="black" stroke-width="0.25"/>
<path d="M18.737 40.9844L32.1068 33.265Z" fill="black"/>
<path d="M18.737 40.9844L32.1068 33.265" stroke="black" stroke-width="0.25"/>
<path d="M20.6115 36.2377L32.1068 29.6007Z" fill="black"/>
<path d="M20.6115 36.2377L32.1068 29.6007" stroke="black" stroke-width="0.25"/>
<path d="M32.0213 37.6245V7.61107Z" fill="black"/>
<path d="M32.0213 37.6245V7.61107" stroke="black" stroke-width="0.25"/>
</svg>
